<?xml version="1.0" encoding="utf-8"?>
<!-- Generator: Adobe Illustrator 26.0.3, SVG Export Plug-In . SVG Version: 6.00 Build 0)  -->
<svg version="1.1" id="Camada_1" xmlns="http://www.w3.org/2000/svg" xmlns:xlink="http://www.w3.org/1999/xlink" x="0px" y="0px"
	 viewBox="0 0 500 500" style="enable-background:new 0 0 500 500;" xml:space="preserve">
<style type="text/css">
	.st0{fill:#FF8F6C;}
	.st1{fill:#4B4F54;}
</style>
<g>
	<g>
		<g>
			<path class="st0" d="M364.76,390.92c-7.78,0-16.79-0.17-27.04-0.53c-10.26-0.35-21.13-0.61-32.61-0.79
				c-11.49-0.17-23.25-0.44-35.26-0.79c-12.02-0.35-23.33-0.53-33.93-0.53s-20.59,0.27-29.96,0.79c-9.37,0.53-17.59,1.06-24.66,1.59
				c-7.07,0.53-12.64,0.88-16.7,1.06c-4.07,0.18-6.45-0.09-7.16-0.79c-0.71-0.7-0.89-2.12-0.53-4.24c0.35-2.12,1.41-3.88,3.18-5.3
				c3.18-2.12,6.63-3.36,10.34-3.71c3.71-0.35,8.04-2.12,12.99-5.3c3.88-2.47,6.71-5.48,8.48-9.01c1.76-3.53,2.65-9.36,2.65-17.5
				V64.84c0-8.13-0.89-13.96-2.65-17.5c-1.77-3.53-4.6-6.54-8.48-9.01c-4.96-3.18-9.28-4.95-12.99-5.3
				c-3.71-0.35-7.16-1.76-10.34-4.24c-1.77-1.06-2.83-2.65-3.18-4.77c-0.36-2.12-0.18-3.53,0.53-4.24c0.7-0.7,3.18-0.97,7.42-0.79
				c4.24,0.18,9.89,0.53,16.97,1.06c7.07,0.53,15.29,1.06,24.65,1.59c9.36,0.53,19.35,0.79,29.96,0.79
				c17.31,0,34.46-0.44,51.43-1.33c16.97-0.88,36.58-1.33,58.85-1.33c16.97,0,31.81,2.39,44.54,7.16
				c12.72,4.77,23.24,11.05,31.55,18.82c8.3,7.78,14.49,16.53,18.56,26.25c4.06,9.72,6.1,19.35,6.1,28.9
				c0,11.66-2.21,22.27-6.63,31.81c-4.42,9.54-10.16,17.94-17.23,25.19c-7.07,7.25-14.84,13.26-23.33,18.02
				c-8.48,4.77-16.79,8.4-24.92,10.87c14.85,1.06,28.98,3.98,42.42,8.75c13.43,4.77,25.27,11.23,35.52,19.35
				c10.25,8.13,18.47,18.12,24.65,29.95c6.18,11.85,9.28,25.19,9.28,40.03c0,16.97-3.01,32-9.01,45.07
				c-6.01,13.08-14.41,24.13-25.19,33.14c-10.79,9.01-23.68,15.91-38.71,20.68C399.31,388.54,382.79,390.92,364.76,390.92z
				 M326.59,180.96c10.95,0,19.26-3.8,24.92-11.4c5.65-7.6,9.28-16.78,10.87-27.57c1.59-10.78,1.5-22.01-0.27-33.67
				c-1.77-11.66-4.6-21.38-8.48-29.16c-7.42-15.19-15.11-25.8-23.06-31.81c-7.95-6.01-16.35-9.01-25.19-9.01
				c-6.36,0-11.67,2.39-15.91,7.16c-4.24,4.77-6.36,12.64-6.36,23.6v111.87H326.59z M346.74,372.37
				c13.79-0.35,24.74-4.33,32.87-11.93c8.13-7.6,13.78-16.88,16.97-27.84c3.18-10.95,4.15-22.71,2.92-35.26
				c-1.24-12.54-3.98-23.77-8.22-33.67c-3.89-8.83-8.48-17.23-13.79-25.19c-5.3-7.95-11.32-14.85-18.03-20.68
				c-6.72-5.83-14.32-10.42-22.8-13.79c-8.48-3.36-17.85-5.04-28.1-5.04h-25.45v136.26c0,13.79,4.32,23.51,12.99,29.16
				c8.66,5.66,20.06,8.31,34.2,7.95H346.74z"/>
		</g>
	</g>
	<g>
		<path class="st1" d="M263.78,362.19c2.39,5.31,5.1,11.6,8.15,18.89c3.04,7.29,6.62,14.91,10.74,22.87
			c4.11,7.95,8.68,15.71,13.72,23.26c5.03,7.55,10.54,14.38,16.5,20.48c5.96,6.1,12.46,11,19.48,14.72
			c7.02,3.71,14.51,5.57,22.47,5.57c3.71,0,7.09-0.73,10.14-2.19c3.04-1.46,5.37-3.25,6.96-5.37c-9.54,0-17.63-3.25-24.26-9.74
			c-6.63-6.5-9.94-14.38-9.94-23.66c0-4.77,0.93-9.22,2.78-13.32c1.85-4.11,4.37-7.69,7.56-10.74c3.18-3.05,6.89-5.44,11.13-7.16
			c4.24-1.73,8.75-2.58,13.52-2.58c5.3,0,10.07,1.06,14.32,3.18c4.24,2.12,7.95,4.83,11.14,8.15c3.18,3.31,5.63,7.16,7.36,11.53
			c1.72,4.37,2.59,8.81,2.59,13.32c0,7.69-1.59,14.71-4.77,21.08c-3.18,6.36-7.62,11.79-13.32,16.3c-5.7,4.5-12.46,8.08-20.28,10.73
			c-7.82,2.65-16.5,3.98-26.05,3.98c-16.17,0-30.69-3.05-43.54-9.14c-12.86-6.1-24.65-14.25-35.39-24.46
			c-10.74-10.21-20.68-22.07-29.82-35.59c-9.15-13.52-18.09-27.71-26.84-42.55c-8.75-15.11-16.7-30.22-23.86-45.33
			c-7.16-15.11-14.25-28.63-21.27-40.56c-7.03-11.93-14.51-21.6-22.47-29.03c-7.95-7.42-17.1-11.14-27.44-11.14h-4.77v96.63
			c0,6.1,0.66,10.48,1.99,13.12c1.32,2.65,3.44,4.91,6.36,6.76c3.71,2.13,6.89,3.32,9.54,3.58c2.65,0.27,5.3,1.33,7.95,3.18
			c1.32,1.06,2.12,2.39,2.39,3.98c0.26,1.59,0.13,2.65-0.4,3.18c-0.27,0.53-2.12,0.73-5.57,0.6c-3.45-0.14-7.95-0.4-13.52-0.8
			c-5.57-0.4-12-0.79-19.29-1.19c-7.29-0.4-14.91-0.6-22.87-0.6c-7.95,0-15.58,0.2-22.87,0.6c-7.29,0.4-13.72,0.79-19.29,1.19
			c-5.57,0.4-10.08,0.66-13.52,0.8c-3.45,0.13-5.44-0.07-5.96-0.6c-0.53-0.53-0.66-1.59-0.4-3.18c0.26-1.59,1.06-2.91,2.39-3.98
			c2.39-1.59,5.1-2.52,8.15-2.78c3.04-0.26,6.56-1.59,10.54-3.98c2.65-1.85,4.7-4.11,6.16-6.76c1.45-2.65,2.19-7.02,2.19-13.12
			V129.56c0.26-6.1-0.34-10.47-1.79-13.12c-1.46-2.65-3.65-4.9-6.56-6.76c-3.72-2.39-6.96-3.71-9.74-3.98
			c-2.78-0.26-5.37-1.19-7.75-2.78c-1.33-1.06-2.13-2.39-2.39-3.98c-0.27-1.59-0.14-2.65,0.4-3.18c0.79-1.06,6.36-0.99,16.7,0.2
			c10.34,1.19,23.59,1.79,39.77,1.79c7.95,0,15.44-0.13,22.47-0.4c7.02-0.26,13.98-0.46,20.88-0.6c6.89-0.13,13.92-0.33,21.08-0.6
			c7.16-0.26,14.84-0.4,23.06-0.4c14.58,0,27.37,1.99,38.37,5.96c11,3.98,20.21,9.28,27.64,15.91c7.42,6.63,13.05,14.18,16.9,22.67
			c3.84,8.49,5.77,17.1,5.77,25.85c0,11.4-2.39,21.47-7.16,30.22c-4.77,8.75-10.94,16.24-18.49,22.47
			c-7.56,6.23-16.04,11.27-25.45,15.11c-9.41,3.85-18.89,6.56-28.43,8.15c6.1,0.79,12.39,2.25,18.89,4.37
			c6.49,2.12,13.19,5.83,20.08,11.13c6.36,5.04,11.99,11.14,16.9,18.29c4.9,7.16,9.54,15.25,13.92,24.26
			c4.37,9.02,8.68,18.69,12.92,29.03C254.5,339.52,259.01,350.52,263.78,362.19z M108.3,230.17h30.62c9.8,0,17.76-2.78,23.86-8.35
			c6.09-5.57,10.4-12.53,12.92-20.88c2.52-8.35,3.51-17.43,2.98-27.24c-0.53-9.8-2.52-18.95-5.96-27.44
			c-5.04-12.72-11.6-22-19.68-27.84c-8.09-5.83-16.24-8.75-24.46-8.75c-5.57,0-10.28,1.66-14.12,4.97
			c-3.85,3.32-5.77,10.14-5.77,20.48L108.3,230.17z"/>
	</g>
</g>
</svg>
